<?xml version="1.0" standalone="no"?>
<!DOCTYPE svg PUBLIC "-//W3C//DTD SVG 20010904//EN"
 "http://www.w3.org/TR/2001/REC-SVG-20010904/DTD/svg10.dtd">
<svg version="1.0" xmlns="http://www.w3.org/2000/svg"
 width="258.000000pt" height="254.000000pt" viewBox="0 0 258.000000 254.000000"
 preserveAspectRatio="xMidYMid meet">

<g transform="translate(0.000000,254.000000) scale(0.100000,-0.100000)"
fill="#293951" stroke="none">
<path d="M2170 2480 c-85 -27 -378 -144 -406 -160 -115 -72 -173 -239 -115
-333 39 -63 56 -67 275 -67 189 0 241 -7 258 -33 4 -7 8 -221 8 -475 l0 -464
32 20 c60 38 147 134 181 201 72 136 71 126 75 634 4 535 3 540 -78 619 -64
62 -151 84 -230 58z m-23 -281 c34 -13 43 -25 43 -66 0 -41 -42 -77 -80 -68
-62 16 -80 76 -35 120 27 28 33 29 72 14z"/>
<path d="M1770 1700 l0 -70 -787 -2 c-867 -3 -812 1 -877 -64 -43 -43 -58 -81
-58 -144 0 -106 67 -189 170 -211 81 -17 205 -9 231 15 25 23 27 63 5 94 -14
20 -23 22 -107 22 -100 0 -135 11 -153 49 -15 29 -1 77 26 91 10 6 80 10 154
10 l136 0 125 -187 c81 -122 125 -197 125 -214 0 -24 -4 -27 -50 -31 -96 -9
-90 24 -90 -498 0 -445 0 -457 20 -478 20 -21 29 -22 194 -22 160 0 174 2 194
20 22 20 22 26 22 289 l0 268 63 17 c122 33 235 120 296 228 l31 55 153 58
c83 32 157 60 163 62 8 3 13 -25 16 -84 6 -113 38 -182 114 -252 69 -63 141
-91 234 -91 l70 0 0 -30 c0 -82 53 -130 109 -99 32 18 44 66 39 157 -7 108
-13 112 -165 112 l-123 0 0 500 0 500 -140 0 -140 0 0 -70z"/>
<path d="M1578 832 c-23 -11 -49 -35 -68 -64 -49 -74 -164 -175 -242 -211
l-68 -32 0 -210 c0 -175 3 -214 16 -233 15 -21 21 -22 190 -22 161 0 176 2
194 20 19 19 20 33 20 300 l0 280 44 22 44 21 -27 52 c-15 29 -30 62 -33 73
-7 26 -20 26 -70 4z"/>
</g>
</svg>
