<svg width="83" height="60" viewBox="0 0 83 60" fill="none" xmlns="http://www.w3.org/2000/svg">
<g clip-path="url(#clip0_2160_32705)">
<path d="M58.4731 21.3815C58.4731 18.0386 56.1114 16.008 51.2869 16.008H41.4766V35.6696H51.4502C56.2727 35.6696 59.029 33.4739 59.029 29.8049C59.029 27.9373 58.0124 26.3649 56.2727 25.7087V25.1516C57.717 24.4643 58.4712 22.9889 58.4712 21.3835L58.4731 21.3815ZM46.235 20.1022H51.1897C52.6981 20.1022 53.4212 20.9875 53.4212 22.0688C53.4212 23.1501 52.7 24.0683 51.1567 24.0683H46.235V20.1022ZM51.6154 31.5715H46.235V27.3122H51.5823C53.0907 27.3122 53.911 28.3605 53.911 29.4748C53.911 30.5892 53.0907 31.5715 51.6134 31.5715H51.6154Z" fill="#00537E"></path>
<path d="M10.6174 39.5017C10.4036 39.5095 10.1917 39.5211 9.97402 39.5211H5.98535V52.0581H17.5529V47.432H10.6174V39.5037V39.5017Z" fill="#2AD295"></path>
<path d="M74.7859 35.6676V0H5.98535V12.4496H9.80879C10.0809 12.4496 10.3492 12.4574 10.6155 12.4671V4.62614H70.1539V35.6676H74.7859Z" fill="#2AD295"></path>
<path d="M9.97361 35.6677C10.1933 35.6677 10.4051 35.658 10.617 35.6483C15.0372 35.458 17.5525 33.3032 17.5525 29.801C17.5525 29.1138 17.4144 28.4693 17.154 27.8927C16.7536 27.0056 16.0616 26.2853 15.1305 25.8466C15.0216 25.7961 14.9108 25.7476 14.7962 25.7049V25.1477C14.8914 25.1031 14.9769 25.0448 15.0663 24.9924C15.9411 24.4819 16.5281 23.6646 16.8041 22.7075C16.9266 22.2843 16.9946 21.8397 16.9946 21.3796C16.9946 18.2289 14.8953 16.2449 10.617 16.0275C10.3546 16.0139 10.0883 16.0061 9.81033 16.0061H0V35.6677H9.97361ZM4.75646 23.6607V20.1023H9.71119C10.0533 20.1023 10.3546 20.1508 10.617 20.2323C11.5092 20.5158 11.9427 21.2321 11.9427 22.0688C11.9427 22.2513 11.9213 22.428 11.8785 22.5968C11.7813 22.9948 11.5695 23.3481 11.2332 23.6083C11.1379 23.682 11.031 23.748 10.9163 23.8063C10.823 23.8529 10.722 23.8936 10.617 23.9286C10.3468 24.0179 10.0358 24.0684 9.67815 24.0684H4.75646V23.6607ZM12.4345 29.4749C12.4345 30.432 11.7891 31.3366 10.617 31.5327C10.4654 31.5579 10.306 31.5735 10.1388 31.5735H4.75646V27.3142H10.1038C10.2846 27.3142 10.4557 27.3298 10.6151 27.3589C10.7764 27.3861 10.9261 27.4288 11.066 27.4831C11.1224 27.5045 11.1788 27.5297 11.2312 27.5549C11.6919 27.7743 12.0263 28.1276 12.2226 28.5431C12.3586 28.8323 12.4306 29.1507 12.4306 29.4768L12.4345 29.4749Z" fill="#00537E"></path>
<path d="M58.1058 47.8746H50.319V51.6097H55.1085V51.8057C55.1046 51.8892 55.0968 51.9727 55.0891 52.0542C54.955 53.4248 54.0977 54.642 52.5388 55.1681C52.0179 55.3428 51.4211 55.4438 50.7466 55.4438C50.0721 55.4438 49.4987 55.3467 48.937 55.1681C48.0934 54.9021 47.3508 54.4517 46.758 53.8402C46.2759 53.3433 45.893 52.7395 45.6267 52.0542C45.4731 51.6563 45.3546 51.2331 45.2846 50.7827C45.234 50.4488 45.201 50.1032 45.201 49.7421C45.201 48.8957 45.3468 48.1192 45.615 47.43C45.8813 46.7409 46.2701 46.1391 46.758 45.6402C47.3508 45.0325 48.0914 44.5821 48.9331 44.3162C49.4968 44.1395 50.1032 44.0405 50.7466 44.0405C51.5047 44.0405 52.1928 44.1531 52.7954 44.3162C54.3077 44.7239 55.2737 45.446 55.3923 45.5373L55.404 45.547L56.3681 44.3162L57.5985 42.7457L58.2264 41.9439C58.2264 41.9439 57.8765 41.5576 57.1378 41.0936C56.6441 40.783 55.9716 40.4394 55.1105 40.1482C54.0025 39.7735 52.5855 39.4862 50.8127 39.4862C45.1757 39.4862 41.4553 42.8951 40.5165 47.43C40.3629 48.1736 40.2812 48.9481 40.2812 49.7421C40.2812 50.0935 40.2968 50.441 40.3279 50.7827C40.3668 51.2156 40.4309 51.6388 40.5165 52.0542C41.4553 56.5872 45.1757 59.9981 50.8127 59.9981C55.1416 59.9981 57.9639 58.014 59.3052 54.9138C59.6823 54.0421 59.9408 53.0831 60.0846 52.0542C60.1138 51.8485 60.1371 51.6427 60.1565 51.4311C60.176 51.2175 60.1935 51.0001 60.2032 50.7807C60.2149 50.5439 60.2285 50.309 60.2285 50.0683V47.8727H58.1058V47.8746Z" fill="#00537E"></path>
<path d="M74.786 39.6978C74.0454 39.56 73.2621 39.4882 72.4379 39.4882C71.6137 39.4882 70.8751 39.558 70.1559 39.6901C67.0711 40.255 64.7405 41.973 63.3623 44.3181C62.8064 45.2655 62.406 46.3138 62.1747 47.432C62.0211 48.1755 61.9395 48.9501 61.9395 49.7441C61.9395 50.0955 61.955 50.443 61.9861 50.7846C62.025 51.2175 62.0891 51.6407 62.1747 52.0562C62.3729 53.0171 62.6956 53.9295 63.1368 54.7682C64.7735 57.884 68.0196 60 72.4379 60C78.6211 60 82.497 55.9369 82.9558 50.7846C82.9869 50.443 83.0024 50.0955 83.0024 49.7441C83.0024 44.8132 79.9643 40.6588 74.786 39.6978ZM77.9932 50.7846C77.5442 53.6015 75.2817 55.4127 72.4359 55.4127C70.0976 55.4127 68.1363 54.1334 67.3004 52.0562C67.141 51.6582 67.0166 51.237 66.9447 50.7846C66.8922 50.4507 66.8592 50.1052 66.8592 49.7441C66.8592 48.8957 67.0128 48.1192 67.2888 47.432C67.833 46.0789 68.8594 45.0694 70.1539 44.5259C70.8479 44.2347 71.6195 44.0755 72.4359 44.0755C73.2523 44.0755 74.0726 44.2385 74.784 44.5375C76.7492 45.3626 78.0788 47.2417 78.0788 49.7441C78.0788 50.1052 78.0457 50.4507 77.9913 50.7846H77.9932Z" fill="#00537E"></path>
<path d="M25.3179 31.7113L34.0592 26.0271C34.4285 25.765 34.7667 25.4622 35.068 25.1244C36.001 24.0741 36.5647 22.6803 36.5666 21.1564C36.5666 18.3648 34.6753 16.0061 32.0843 15.4101H32.0765L32.0454 15.4023C31.956 15.3848 31.8316 15.3596 31.6819 15.3402L31.5186 15.3091L31.4642 15.2994L31.4156 15.2955C31.2387 15.28 31.0482 15.2703 30.8519 15.2684H21.5625V22.4007H25.3199V19.8964H30.7566L30.7955 19.9003L30.8927 19.91L31.0171 19.9333H31.0288C31.5108 20.0188 31.9054 20.3934 32.0221 20.9059C32.0396 21.0205 32.0493 21.1272 32.0512 21.2301L32.0454 21.3117C32.0395 21.4029 32.0357 21.4476 32.0337 21.4553L32.0221 21.5116C31.9462 21.8494 31.7538 22.129 31.505 22.3037L31.367 22.3969L28.2589 24.4876L21.5703 28.9876V35.6715H36.5803V31.7151H25.3199L25.3179 31.7113Z" fill="#00537E"></path>
<path d="M25.3179 55.9524L34.0592 50.2682C34.4285 50.0062 34.7667 49.7033 35.068 49.3655C36.001 48.3153 36.5647 46.9214 36.5666 45.3975C36.5666 42.6059 34.6753 40.2472 32.0843 39.6512H32.0765L32.0454 39.6435C31.956 39.626 31.8316 39.6008 31.6819 39.5813L31.5186 39.5503L31.4642 39.5406L31.4156 39.5367C31.2387 39.5212 31.0482 39.5115 30.8519 39.5095H21.5625V46.6419H25.3199V44.1376H30.7566L30.7955 44.1415L30.8927 44.1512L31.0171 44.1745H31.0288C31.5108 44.2599 31.9054 44.6346 32.0221 45.1471C32.0396 45.2616 32.0493 45.3684 32.0512 45.4713L32.0454 45.5528C32.0395 45.6441 32.0357 45.6887 32.0337 45.6965L32.0221 45.7528C31.9462 46.0906 31.7538 46.3701 31.505 46.5448L31.367 46.638L28.2589 48.7288L21.5703 53.2287V59.9127H36.5803V55.9563H25.3199L25.3179 55.9524Z" fill="#00537E"></path>
<path style="mix-blend-mode:multiply" d="M25.3199 31.7094L21.5684 34.2117V35.6677H36.5783V31.7113L25.3199 31.7094Z" fill="url(#paint0_linear_2160_32705)"></path>
<path style="mix-blend-mode:multiply" d="M25.3199 55.964L21.5684 58.4663V59.9223H36.5783V55.9659L25.3199 55.964Z" fill="url(#paint1_linear_2160_32705)"></path>
</g>
<defs>
<linearGradient id="paint0_linear_2160_32705" x1="21.5684" y1="33.6895" x2="36.5783" y2="33.6895" gradientUnits="userSpaceOnUse">
<stop stop-color="#00537E"></stop>
<stop offset="1" stop-color="#231F20" stop-opacity="0"></stop>
</linearGradient>
<linearGradient id="paint1_linear_2160_32705" x1="21.5684" y1="57.9422" x2="36.5783" y2="57.9422" gradientUnits="userSpaceOnUse">
<stop stop-color="#00537E"></stop>
<stop offset="1" stop-color="#231F20" stop-opacity="0"></stop>
</linearGradient>
<clipPath id="clip0_2160_32705">
<rect width="83" height="60" fill="white"></rect>
</clipPath>
</defs>
</svg>